HIERARCHY
ROOT root
{
  OFFSET 0 93.2929 0
  CHANNELS 6 Xposition Yposition Zposition Zrotation Xrotation Yrotation
  JOINT torso_1
  {
    OFFSET 0 5.07867 -1.15138
    CHANNELS 6 Xposition Yposition Zposition Zrotation Xrotation Yrotation
    JOINT torso_2
    {
      OFFSET 0 5.61661 1.07143
      CHANNELS 6 Xposition Yposition Zposition Zrotation Xrotation Yrotation
      JOINT torso_3
      {
        OFFSET -1.02604e-17 5.98978 0.11501
        CHANNELS 6 Xposition Yposition Zposition Zrotation Xrotation Yrotation
        JOINT torso_4
        {
          OFFSET -1.10457e-17 6.50583 -0.443523
          CHANNELS 6 Xposition Yposition Zposition Zrotation Xrotation Yrotation
          JOINT torso_5
          {
            OFFSET -1.97295e-17 7.60548 -1.50593
            CHANNELS 6 Xposition Yposition Zposition Zrotation Xrotation Yrotation
            JOINT torso_6
            {
              OFFSET -2.53307e-17 9.49737 -0.914492
              CHANNELS 6 Xposition Yposition Zposition Zrotation Xrotation Yrotation
              JOINT torso_7
              {
                OFFSET -2.90401e-17 10.5513 1.57691
                CHANNELS 6 Xposition Yposition Zposition Zrotation Xrotation Yrotation
                JOINT neck_1
                {
                  OFFSET -1.29193e-17 4.78644 0.715339
                  CHANNELS 6 Xposition Yposition Zposition Zrotation Xrotation Yrotation
                  JOINT neck_2
                  {
                    OFFSET -1.8116e-17 4.82109 0.421791
                    CHANNELS 6 Xposition Yposition Zposition Zrotation Xrotation Yrotation
                    JOINT head
                    {
                      OFFSET -2.00958e-17 4.83041 0.765062
                      CHANNELS 6 Xposition Yposition Zposition Zrotation Xrotation Yrotation
                      End Site
                      {
                        OFFSET 0 0.1 0
                      }
                    }
                  }
                }
                JOINT l_shoulder
                {
                  OFFSET 1.23299 -7.60731 7.53374
                  CHANNELS 6 Xposition Yposition Zposition Zrotation Xrotation Yrotation
                  JOINT l_up_arm
                  {
                    OFFSET 12.9547 3.2495 -3.26872
                    CHANNELS 6 Xposition Yposition Zposition Zrotation Xrotation Yrotation
                    JOINT l_low_arm
                    {
                      OFFSET 29.2081 0.0598081 0.137039
                      CHANNELS 6 Xposition Yposition Zposition Zrotation Xrotation Yrotation
                      JOINT l_hand
                      {
                        OFFSET 24.234 0.0496219 0.113701
                        CHANNELS 6 Xposition Yposition Zposition Zrotation Xrotation Yrotation
                        End Site
                        {
                          OFFSET 0.1 0 0
                        }
                      }
                    }
                  }
                }
                JOINT r_shoulder
                {
                  OFFSET -1.23299 -7.60729 7.53365
                  CHANNELS 6 Xposition Yposition Zposition Zrotation Xrotation Yrotation
                  JOINT r_up_arm
                  {
                    OFFSET -12.9547 3.2495 -3.26872
                    CHANNELS 6 Xposition Yposition Zposition Zrotation Xrotation Yrotation
                    JOINT r_low_arm
                    {
                      OFFSET -29.2081 0.0598081 0.137039
                      CHANNELS 6 Xposition Yposition Zposition Zrotation Xrotation Yrotation
                      JOINT r_hand
                      {
                        OFFSET -24.234 0.0496218 0.113702
                        CHANNELS 6 Xposition Yposition Zposition Zrotation Xrotation Yrotation
                        End Site
                        {
                          OFFSET -0.1 0 0
                        }
                      }
                    }
                  }
                }
              }
            }
          }
        }
      }
    }
  }
  JOINT l_up_leg
  {
    OFFSET 9.23673 -4.20556 2.0327
    CHANNELS 6 Xposition Yposition Zposition Zrotation Xrotation Yrotation
    JOINT l_low_leg
    {
      OFFSET -0.852353 -38.7721 -0.655187
      CHANNELS 6 Xposition Yposition Zposition Zrotation Xrotation Yrotation
      JOINT l_foot
      {
        OFFSET -2.32622 -40.4017 -6.04875
        CHANNELS 6 Xposition Yposition Zposition Zrotation Xrotation Yrotation
        JOINT l_toes
        {
          OFFSET 0.779096 -9.8844 12.4959
          CHANNELS 6 Xposition Yposition Zposition Zrotation Xrotation Yrotation
          End Site
          {
            OFFSET 0 0 0.1
          }
        }
      }
    }
  }
  JOINT r_up_leg
  {
    OFFSET -9.23673 -4.20556 2.0327
    CHANNELS 6 Xposition Yposition Zposition Zrotation Xrotation Yrotation
    JOINT r_low_leg
    {
      OFFSET 0.852353 -38.7721 -0.655187
      CHANNELS 6 Xposition Yposition Zposition Zrotation Xrotation Yrotation
      JOINT r_foot
      {
        OFFSET 2.32622 -40.4017 -6.04875
        CHANNELS 6 Xposition Yposition Zposition Zrotation Xrotation Yrotation
        JOINT r_toes
        {
          OFFSET -0.779096 -9.8844 12.4959
          CHANNELS 6 Xposition Yposition Zposition Zrotation Xrotation Yrotation
          End Site
          {
            OFFSET 0 0 0.1
          }
        }
      }
    }
  }
}
MOTION
Frames: 4
Frame Time: 0.016667
0 93.2929 0 -0 0 -0 0 5.07867 -1.15138 -0 0 -0 0 5.61661 1.07143 -0 0 -0 -1.02604e-17 5.98978 0.11501 -0 0 -0 -1.10457e-17 6.50583 -0.443523 -0 0 -0 -1.97295e-17 7.60548 -1.50593 -0 0 -0 -2.53307e-17 9.49737 -0.914492 -0 0 -0 -2.90401e-17 10.5513 1.57691 -0 0 -0 -1.29193e-17 4.78644 0.715339 -0 0 -0 -1.8116e-17 4.82109 0.421791 -0 0 -0 -2.00958e-17 4.83041 0.765062 -0 0 -0 1.23299 -7.60731 7.53374 -0 0 -0 12.9547 3.2495 -3.26872 -0 0 -0 29.2081 0.0598081 0.137039 -0 0 -0 24.234 0.0496219 0.113701 -0 0 -0 -1.23299 -7.60729 7.53365 -0 0 -0 -12.9547 3.2495 -3.26872 -0 0 -0 -29.2081 0.0598081 0.137039 -0 0 -0 -24.234 0.0496218 0.113702 -0 0 -0 9.23673 -4.20556 2.0327 -0 0 -0 -0.852353 -38.7721 -0.655187 -0 0 -0 -2.32622 -40.4017 -6.04875 -0 0 -0 0.779096 -9.8844 12.4959 -0 0 -0 -9.23673 -4.20556 2.0327 -0 0 -0 0.852353 -38.7721 -0.655187 -0 0 -0 2.32622 -40.4017 -6.04875 -0 0 -0 -0.779096 -9.8844 12.4959 -0 0 -0 
-2.30566 91.7493 8.26828 8.04433 -6.92197 0.876066 0 5.07867 -1.15138 -2.73602 1.73596 0.442455 0 5.61661 1.07143 -2.15948 1.65828 0.103069 -1.02604e-17 5.98978 0.11501 -1.65098 1.99069 0.191689 -1.10457e-17 6.50583 -0.443523 -1.1067 2.01028 0.182295 -1.97295e-17 7.60548 -1.50593 -0.505037 1.87717 0.280397 -2.53307e-17 9.49737 -0.914492 0.197369 1.31543 0.00353427 -2.90401e-17 10.5513 1.57691 0.00303948 0.682617 -0.151889 -1.29193e-17 4.78644 0.715339 0.357618 8.05527 2.90557 -1.8116e-17 4.82109 0.421791 0.304015 -5.38824 1.1229 -2.00958e-17 4.83041 0.765062 -0.431825 -8.12323 2.50421 1.23299 -7.60731 7.53374 10.8815 2.10525 1.53114 12.9547 3.2495 -3.26872 -90.9159 30.58 -1.62215 29.2081 0.0598081 0.137039 3.08033 -0.389557 -15.0038 24.234 0.0496219 0.113701 -3.20945 -24.3638 -1.27918 -1.23299 -7.60729 7.53365 -8.87867 1.69138 -2.04587 -12.9547 3.2495 -3.26872 91.0648 26.4959 0.746531 -29.2081 0.0598081 0.137039 -3.21016 -0.424299 15.6496 -24.234 0.0496218 0.113702 4.62728 -26.0861 1.79796 9.23673 -4.20556 2.0327 -5.67512 1.93541 -18.8201 -0.852353 -38.7721 -0.655187 -0.65832 2.45863 -0.0287923 -2.32622 -40.4017 -6.04875 -2.98609 0.875063 15.4613 0.779096 -9.8844 12.4959 -4.76666e-16 -8.12435e-16 2.97205e-17 -9.23673 -4.20556 2.0327 -8.63387 -9.83242 23.7624 0.852353 -38.7721 -0.655187 3.57652 13.2067 -0.182515 2.32622 -40.4017 -6.04875 0.131185 -3.14749 -15.2261 -0.779096 -9.8844 12.4959 -4.92409e-16 -5.63954e-16 -1.27503e-14 
-2.39843 91.6341 8.33001 8.04851 -7.07168 0.688785 0 5.07867 -1.15138 -2.74763 1.70268 0.471859 0 5.61661 1.07143 -2.17536 1.62796 0.128305 -1.02604e-17 5.98978 0.11501 -1.66768 1.9588 0.216499 -1.10457e-17 6.50583 -0.443523 -1.12535 1.97025 0.206599 -1.97295e-17 7.60548 -1.50593 -0.519016 1.84131 0.3084 -2.53307e-17 9.49737 -0.914492 0.193456 1.27563 0.0367968 -2.90401e-17 10.5513 1.57691 0.00108853 0.68541 -0.150129 -1.29193e-17 4.78644 0.715339 0.35043 7.80543 2.97305 -1.8116e-17 4.82109 0.421791 0.289304 -5.3096 1.15272 -2.00958e-17 4.83041 0.765062 -0.393174 -7.90468 2.47682 1.23299 -7.60731 7.53374 10.7472 2.15644 1.46757 12.9547 3.2495 -3.26872 -91.0403 30.3449 -1.37913 29.2081 0.0598081 0.137039 3.07938 -0.389308 -14.9991 24.234 0.0496219 0.113701 -3.07197 -23.9217 -1.24716 -1.23299 -7.60729 7.53365 -8.74576 1.77013 -2.00614 -12.9547 3.2495 -3.26872 91.0364 26.629 0.660335 -29.2081 0.0598081 0.137039 -3.18726 -0.418036 15.5354 -24.234 0.0496218 0.113702 4.58249 -25.922 1.66015 9.23673 -4.20556 2.0327 -5.5848 2.23247 -18.8584 -0.852353 -38.7721 -0.655187 -0.635685 2.37407 -0.0282709 -2.32622 -40.4017 -6.04875 -2.92292 0.385696 15.4589 0.779096 -9.8844 12.4959 -7.18318e-16 -8.29163e-16 4.64479e-17 -9.23673 -4.20556 2.0327 -8.50904 -9.74318 24.2444 0.852353 -38.7721 -0.655187 3.59313 13.2663 -0.185277 2.32622 -40.4017 -6.04875 -0.0358396 -3.53686 -15.2291 -0.779096 -9.8844 12.4959 -2.50757e-16 -5.80682e-16 -1.27579e-14 
-2.48931 91.5488 8.37981 8.05918 -7.29321 0.563908 0 5.07867 -1.15138 -2.74821 1.68623 0.496739 0 5.61661 1.07143 -2.1819 1.61143 0.150621 -1.02604e-17 5.98978 0.11501 -1.6781 1.94031 0.238013 -1.10457e-17 6.50583 -0.443523 -1.13998 1.94411 0.227251 -1.97295e-17 7.60548 -1.50593 -0.532759 1.81339 0.331794 -2.53307e-17 9.49737 -0.914492 0.185952 1.24326 0.0669055 -2.90401e-17 10.5513 1.57691 -0.00103153 0.68863 -0.149355 -1.29193e-17 4.78644 0.715339 0.339334 7.676 3.02936 -1.8116e-17 4.82109 0.421791 0.256445 -5.27899 1.17746 -2.00958e-17 4.83041 0.765062 -0.355965 -7.78695 2.44594 1.23299 -7.60731 7.53374 10.6427 2.17698 1.40866 12.9547 3.2495 -3.26872 -91.0466 30.0844 -1.24013 29.2081 0.0598081 0.137039 3.04984 -0.381597 -14.8521 24.234 0.0496219 0.113701 -3.10779 -23.3928 -1.291 -1.23299 -7.60729 7.53365 -8.6867 1.8229 -1.99038 -12.9547 3.2495 -3.26872 91.0678 26.6974 0.573269 -29.2081 0.0598081 0.137039 -3.13331 -0.403472 15.2663 -24.234 0.0496218 0.113702 4.56927 -25.7471 1.63359 9.23673 -4.20556 2.0327 -5.50467 2.58532 -18.8924 -0.852353 -38.7721 -0.655187 -0.610315 2.2793 -0.0276468 -2.32622 -40.4017 -6.04875 -2.92568 0.0392273 15.4618 0.779096 -9.8844 12.4959 -7.70291e-16 -8.32411e-16 4.96962e-17 -9.23673 -4.20556 2.0327 -8.40988 -9.60792 24.5369 0.852353 -38.7721 -0.655187 3.61588 13.3479 -0.189089 2.32622 -40.4017 -6.04875 -0.162303 -3.77526 -15.2281 -0.779096 -9.8844 12.4959 1.46812e-16 -5.9473e-16 -1.27703e-14 
